<svg width="130" height="130" viewBox="0 0 130 130" fill="none" xmlns="http://www.w3.org/2000/svg">
<circle cx="65" cy="65" r="65" fill="#53A8BB"/>
<path d="M85.846 47.7959C84.685 46.1051 83.0978 44.7509 81.2452 43.8706C79.3926 42.9903 77.3403 42.6151 75.296 42.7829C70.488 43.3289 69.236 45.5479 64.939 45.9709C60.643 45.5479 59.389 43.3289 54.582 42.7829C52.5378 42.6151 50.4855 42.9903 48.6329 43.8706C46.7802 44.7509 45.1931 46.1051 44.032 47.7959C41.274 52.0079 41.879 58.2999 45.844 63.1139C46.71 64.1315 47.2174 65.4056 47.288 66.7399C47.525 72.8609 48.69 90.0819 54.276 91.2479C58.586 92.1479 56.306 71.5509 64.939 71.8179C73.571 71.5509 71.293 92.1469 75.602 91.2479C81.188 90.0819 82.352 72.8609 82.59 66.7399C82.6607 65.4056 83.1681 64.1315 84.034 63.1139C87.999 58.2999 88.604 52.0079 85.846 47.7959Z" fill="white"/>
<path d="M85.8459 47.7959C84.5939 44.9999 73.3719 40.1089 75.2959 42.7829C78.3559 47.0349 79.5029 55.014 78.5529 63.705C77.7349 71.173 73.0769 87.582 73.0769 87.582C72.7119 89.8139 74.0469 91.79 74.9069 91.653C77.2819 91.276 82.8429 84.0399 82.5899 66.74C82.6271 65.3987 83.1384 64.114 84.0329 63.1139C85.7556 60.9949 86.8406 58.4299 87.1616 55.718C87.4826 53.006 87.0263 50.2586 85.8459 47.7959Z" fill="#D0CFCE"/>
<path d="M85.846 47.7959C84.685 46.1051 83.0978 44.7509 81.2452 43.8706C79.3926 42.9903 77.3403 42.6151 75.296 42.7829C70.488 43.3289 69.236 45.5479 64.939 45.9709C60.643 45.5479 59.389 43.3289 54.582 42.7829C52.5378 42.6151 50.4855 42.9903 48.6329 43.8706C46.7802 44.7509 45.1931 46.1051 44.032 47.7959C41.274 52.0079 41.879 58.2999 45.844 63.1139C46.71 64.1315 47.2174 65.4056 47.288 66.7399C47.525 72.8609 48.69 90.0819 54.276 91.2479C58.586 92.1479 56.306 71.5509 64.939 71.8179C73.571 71.5509 71.293 92.1469 75.602 91.2479C81.188 90.0819 82.352 72.8609 82.59 66.7399C82.6607 65.4056 83.1681 64.1315 84.034 63.1139C87.999 58.2999 88.604 52.0079 85.846 47.7959Z" stroke="white" stroke-width="2" stroke-miterlimit="10"/>
</svg>
