<svg width="130" height="130" viewBox="0 0 130 130" fill="none" xmlns="http://www.w3.org/2000/svg">
<circle cx="65" cy="65" r="65" fill="#53A8BB"/>
<path d="M54.5 63C51.1848 63 48.0054 61.683 45.6612 59.3388C43.317 56.9946 42 53.8152 42 50.5V40.5C42 39.837 42.2634 39.2011 42.7322 38.7322C43.2011 38.2634 43.837 38 44.5 38H47C47.663 38 48.2989 37.7366 48.7678 37.2678C49.2366 36.7989 49.5 36.163 49.5 35.5C49.5 34.837 49.2366 34.2011 48.7678 33.7322C48.2989 33.2634 47.663 33 47 33H44.5C42.5109 33 40.6032 33.7902 39.1967 35.1967C37.7902 36.6032 37 38.5109 37 40.5V50.5C37.0032 53.3243 37.6919 56.1057 39.007 58.6052C40.3221 61.1047 42.2242 63.2477 44.55 64.85C46.7846 66.8201 48.5968 69.2225 49.8772 71.9123C51.1577 74.6021 51.8798 77.5234 52 80.5C52 85.1413 53.8437 89.5925 57.1256 92.8744C60.4075 96.1563 64.8587 98 69.5 98C74.1413 98 78.5925 96.1563 81.8744 92.8744C85.1563 89.5925 87 85.1413 87 80.5V77.65C89.3566 77.0415 91.4105 75.5944 92.7765 73.58C94.1425 71.5655 94.727 69.122 94.4203 66.7075C94.1136 64.293 92.9368 62.0732 91.1106 60.4642C89.2843 58.8552 86.9339 57.9675 84.5 57.9675C82.0661 57.9675 79.7157 58.8552 77.8894 60.4642C76.0632 62.0732 74.8864 64.293 74.5797 66.7075C74.273 69.122 74.8575 71.5655 76.2235 73.58C77.5895 75.5944 79.6434 77.0415 82 77.65V80.5C82 83.8152 80.683 86.9946 78.3388 89.3388C75.9946 91.683 72.8152 93 69.5 93C66.1848 93 63.0054 91.683 60.6612 89.3388C58.317 86.9946 57 83.8152 57 80.5C57.1265 77.5197 57.8565 74.5961 59.1456 71.9061C60.4348 69.2161 62.2563 66.8157 64.5 64.85C66.8166 63.2421 68.709 61.0967 70.0151 58.5975C71.3213 56.0984 72.0024 53.3199 72 50.5V40.5C72 38.5109 71.2098 36.6032 69.8033 35.1967C68.3968 33.7902 66.4891 33 64.5 33H62C61.337 33 60.7011 33.2634 60.2322 33.7322C59.7634 34.2011 59.5 34.837 59.5 35.5C59.5 36.163 59.7634 36.7989 60.2322 37.2678C60.7011 37.7366 61.337 38 62 38H64.5C65.163 38 65.7989 38.2634 66.2678 38.7322C66.7366 39.2011 67 39.837 67 40.5V50.5C67 52.1415 66.6767 53.767 66.0485 55.2835C65.4203 56.8001 64.4996 58.1781 63.3388 59.3388C62.1781 60.4996 60.8001 61.4203 59.2835 62.0485C57.767 62.6767 56.1415 63 54.5 63ZM84.5 73C83.1739 73 81.9021 72.4732 80.9645 71.5355C80.0268 70.5979 79.5 69.3261 79.5 68C79.5 66.6739 80.0268 65.4021 80.9645 64.4645C81.9021 63.5268 83.1739 63 84.5 63C85.8261 63 87.0979 63.5268 88.0355 64.4645C88.9732 65.4021 89.5 66.6739 89.5 68C89.5 69.3261 88.9732 70.5979 88.0355 71.5355C87.0979 72.4732 85.8261 73 84.5 73Z" fill="white"/>
</svg>
