<svg width="38" height="27" viewBox="0 0 38 27" fill="none" xmlns="http://www.w3.org/2000/svg">
<path d="M37.1617 4.1673C36.9437 3.36177 36.5184 2.62741 35.9283 2.03735C35.3382 1.44729 34.6039 1.02211 33.7983 0.804174C30.8491 0 18.9808 0 18.9808 0C18.9808 0 7.11204 0.0244042 4.16332 0.828579C3.35782 1.04655 2.62348 1.47174 2.03342 2.0618C1.44336 2.65186 1.01817 3.3862 0.800198 4.1917C-0.0918316 9.43162 -0.437905 17.4155 0.824602 22.4455C1.04258 23.251 1.46776 23.9854 2.05782 24.5754C2.64788 25.1655 3.38223 25.5907 4.18772 25.8087C7.13667 26.6128 19.0052 26.6128 19.0052 26.6128C19.0052 26.6128 30.8738 26.6128 33.8227 25.8087C34.6282 25.5907 35.3626 25.1655 35.9526 24.5754C36.5427 23.9854 36.9679 23.251 37.1858 22.4455C38.1264 17.1984 38.4167 9.21918 37.1617 4.1673Z" fill="#FF0000"/>
<path d="M15.2031 19.0091L25.0489 13.3064L15.2031 7.60352V19.0091Z" fill="white"/>
</svg>
