<svg width="367" height="72" viewBox="0 0 367 72" fill="none" xmlns="http://www.w3.org/2000/svg">
<path d="M78.1033 57.4102C75.5637 57.4102 73.0828 57.0781 70.6605 56.414C68.2382 55.7498 66.3042 54.9098 64.8586 53.894L67.6717 48.3265C69.0782 49.2642 70.7582 50.026 72.7117 50.6121C74.7042 51.1591 76.6577 51.4326 78.5721 51.4326C82.9479 51.4326 85.1358 50.28 85.1358 47.9749C85.1358 46.8809 84.5693 46.1191 83.4363 45.6893C82.3424 45.2595 80.5647 44.8493 78.1033 44.4586C75.5247 44.0679 73.4149 43.6186 71.774 43.1107C70.1721 42.6028 68.7656 41.7237 67.5544 40.4735C66.3823 39.1842 65.7963 37.4065 65.7963 35.1405C65.7963 32.1712 67.027 29.8074 69.4884 28.0493C71.9889 26.2521 75.3489 25.3535 79.5684 25.3535C81.7172 25.3535 83.8661 25.6074 86.0149 26.1153C88.1637 26.5842 89.9219 27.2288 91.2893 28.0493L88.4763 33.6167C85.8196 32.054 82.8307 31.2726 79.5098 31.2726C77.361 31.2726 75.72 31.6046 74.587 32.2688C73.493 32.894 72.9461 33.734 72.9461 34.7888C72.9461 35.9609 73.5321 36.8009 74.7042 37.3088C75.9154 37.7777 77.7712 38.227 80.2717 38.6567C82.7721 39.0474 84.8233 39.4967 86.4251 40.0046C88.027 40.5126 89.3944 41.3721 90.5275 42.5833C91.6996 43.7944 92.2856 45.5135 92.2856 47.7405C92.2856 50.6707 91.0158 53.0149 88.4763 54.773C85.9368 56.5312 82.4791 57.4102 78.1033 57.4102ZM129.186 25.7051V57H122.212V52.9563C121.001 54.4409 119.497 55.5544 117.699 56.2967C115.941 57.0391 113.988 57.4102 111.839 57.4102C108.792 57.4102 106.057 56.746 103.634 55.4177C101.251 54.0893 99.3757 52.214 98.0083 49.7916C96.6799 47.3693 96.0157 44.5563 96.0157 41.3526C96.0157 38.1488 96.6799 35.3553 98.0083 32.9721C99.3757 30.5498 101.251 28.6744 103.634 27.346C106.057 26.0177 108.792 25.3535 111.839 25.3535C113.871 25.3535 115.726 25.7051 117.406 26.4084C119.125 27.1116 120.61 28.147 121.86 29.5144V25.7051H129.186ZM112.659 51.1395C115.355 51.1395 117.582 50.2409 119.34 48.4437C121.098 46.6465 121.978 44.2828 121.978 41.3526C121.978 38.4223 121.098 36.0586 119.34 34.2614C117.582 32.4642 115.355 31.5656 112.659 31.5656C109.964 31.5656 107.737 32.4642 105.978 34.2614C104.259 36.0586 103.4 38.4223 103.4 41.3526C103.4 44.2828 104.259 46.6465 105.978 48.4437C107.737 50.2409 109.964 51.1395 112.659 51.1395ZM150.55 19.0242C147.464 19.0242 145.92 20.7042 145.92 24.0642V25.9395H154.535V31.8H146.096V57H138.771V23.947C138.771 20.626 139.747 17.9888 141.701 16.0353C143.654 14.0819 146.428 13.1051 150.023 13.1051C152.797 13.1051 154.985 13.6716 156.586 14.8046L154.535 20.3135C153.363 19.4539 152.035 19.0242 150.55 19.0242ZM173.859 51.1981C177.258 51.1981 180.09 50.0651 182.356 47.7991L186.224 52.3116C184.857 53.9916 183.099 55.2614 180.95 56.1209C178.801 56.9805 176.379 57.4102 173.683 57.4102C170.245 57.4102 167.217 56.7265 164.599 55.3591C161.981 53.9916 159.95 52.0967 158.504 49.6744C157.098 47.213 156.395 44.4391 156.395 41.3526C156.395 38.3051 157.078 35.5702 158.446 33.1479C159.852 30.6865 161.767 28.7721 164.189 27.4046C166.65 26.0372 169.424 25.3535 172.511 25.3535C175.441 25.3535 178.098 25.9981 180.481 27.2874C182.903 28.5377 184.818 30.3544 186.224 32.7377C187.631 35.0819 188.334 37.8363 188.334 41.0009L164.365 45.6893C165.107 47.4865 166.299 48.854 167.94 49.7916C169.581 50.7293 171.554 51.1981 173.859 51.1981ZM172.511 31.2139C169.815 31.2139 167.627 32.093 165.947 33.8512C164.306 35.6093 163.486 37.973 163.486 40.9423V41.0009L181.184 37.6019C180.676 35.6874 179.641 34.1442 178.078 32.9721C176.555 31.8 174.699 31.2139 172.511 31.2139ZM197.716 57.4102C196.388 57.4102 195.255 56.9609 194.317 56.0623C193.38 55.1247 192.911 53.9526 192.911 52.546C192.911 51.1005 193.36 49.9284 194.259 49.0298C195.196 48.1312 196.349 47.6819 197.716 47.6819C199.084 47.6819 200.217 48.1312 201.115 49.0298C202.053 49.9284 202.522 51.1005 202.522 52.546C202.522 53.9526 202.053 55.1247 201.115 56.0623C200.178 56.9609 199.045 57.4102 197.716 57.4102ZM223.466 57.4102C220.223 57.4102 217.312 56.7265 214.734 55.3591C212.155 53.9916 210.143 52.0967 208.697 49.6744C207.252 47.213 206.529 44.4391 206.529 41.3526C206.529 38.266 207.252 35.5116 208.697 33.0893C210.143 30.667 212.135 28.7721 214.675 27.4046C217.254 26.0372 220.184 25.3535 223.466 25.3535C226.552 25.3535 229.248 25.9786 231.553 27.2288C233.897 28.4791 235.655 30.2763 236.828 32.6205L231.202 35.9023C230.303 34.4567 229.17 33.3823 227.802 32.6791C226.474 31.9367 225.009 31.5656 223.407 31.5656C220.672 31.5656 218.406 32.4642 216.609 34.2614C214.812 36.0195 213.913 38.3833 213.913 41.3526C213.913 44.3219 214.792 46.7051 216.55 48.5023C218.348 50.2605 220.633 51.1395 223.407 51.1395C225.009 51.1395 226.474 50.7879 227.802 50.0847C229.17 49.3423 230.303 48.2484 231.202 46.8028L236.828 50.0847C235.616 52.4288 233.839 54.2456 231.495 55.5349C229.189 56.7851 226.513 57.4102 223.466 57.4102ZM253.188 57.4102C249.946 57.4102 247.406 56.5312 245.57 54.773C243.773 52.9758 242.874 50.4558 242.874 47.213V13.5153H250.2V46.6856C250.2 49.8112 251.665 51.374 254.595 51.374C255.572 51.374 256.451 51.1786 257.232 50.7879L257.584 56.6484C256.216 57.1563 254.751 57.4102 253.188 57.4102ZM262.561 25.7051H269.887V57H262.561V25.7051ZM266.254 20.5479C264.925 20.5479 263.812 20.1377 262.913 19.3172C262.014 18.4577 261.565 17.4028 261.565 16.1526C261.565 14.9023 262.014 13.867 262.913 13.0465C263.812 12.187 264.925 11.7572 266.254 11.7572C267.582 11.7572 268.695 12.1674 269.594 12.9879C270.493 13.7693 270.942 14.7656 270.942 15.9767C270.942 17.266 270.493 18.36 269.594 19.2586C268.734 20.1181 267.621 20.5479 266.254 20.5479ZM297.259 25.3535C301.205 25.3535 304.37 26.506 306.753 28.8112C309.136 31.1163 310.328 34.5349 310.328 39.067V57H303.002V40.0046C303.002 37.2698 302.358 35.2186 301.068 33.8512C299.779 32.4446 297.943 31.7414 295.56 31.7414C292.864 31.7414 290.734 32.5619 289.172 34.2028C287.609 35.8046 286.827 38.1293 286.827 41.1767V57H279.502V25.7051H286.476V29.7488C287.687 28.3033 289.211 27.2093 291.047 26.467C292.883 25.7246 294.954 25.3535 297.259 25.3535ZM319.621 25.7051H326.946V57H319.621V25.7051ZM323.313 20.5479C321.985 20.5479 320.871 20.1377 319.972 19.3172C319.074 18.4577 318.625 17.4028 318.625 16.1526C318.625 14.9023 319.074 13.867 319.972 13.0465C320.871 12.187 321.985 11.7572 323.313 11.7572C324.641 11.7572 325.755 12.1674 326.653 12.9879C327.552 13.7693 328.001 14.7656 328.001 15.9767C328.001 17.266 327.552 18.36 326.653 19.2586C325.794 20.1181 324.68 20.5479 323.313 20.5479ZM350.919 57.4102C347.677 57.4102 344.766 56.7265 342.187 55.3591C339.609 53.9916 337.597 52.0967 336.151 49.6744C334.705 47.213 333.983 44.4391 333.983 41.3526C333.983 38.266 334.705 35.5116 336.151 33.0893C337.597 30.667 339.589 28.7721 342.129 27.4046C344.707 26.0372 347.638 25.3535 350.919 25.3535C354.006 25.3535 356.702 25.9786 359.007 27.2288C361.351 28.4791 363.109 30.2763 364.281 32.6205L358.655 35.9023C357.757 34.4567 356.624 33.3823 355.256 32.6791C353.928 31.9367 352.463 31.5656 350.861 31.5656C348.126 31.5656 345.86 32.4642 344.063 34.2614C342.265 36.0195 341.367 38.3833 341.367 41.3526C341.367 44.3219 342.246 46.7051 344.004 48.5023C345.801 50.2605 348.087 51.1395 350.861 51.1395C352.463 51.1395 353.928 50.7879 355.256 50.0847C356.624 49.3423 357.757 48.2484 358.655 46.8028L364.281 50.0847C363.07 52.4288 361.292 54.2456 358.948 55.5349C356.643 56.7851 353.967 57.4102 350.919 57.4102Z" fill="white"/>
<path d="M23.4418 39.0699H17.8604V32.3722H23.4418V26.7908H30.1395V32.3722H35.7209V39.0699H30.1395V44.6513H23.4418V39.0699ZM26.7906 14.5117L8.93018 21.2094V34.8057C8.93018 46.0801 16.5432 56.5954 26.7906 59.1629C37.0381 56.5954 44.6511 46.0801 44.6511 34.8057V21.2094L26.7906 14.5117Z" fill="#F8F8F8"/>
</svg>
