<svg width="240" height="43" viewBox="0 0 240 43" fill="none" xmlns="http://www.w3.org/2000/svg">
<line x1="239" y1="2" x2="239" y2="42" stroke="white" stroke-width="2" stroke-linecap="round"/>
<path d="M46.645 34.245C45.1283 34.245 43.6467 34.0467 42.2 33.65C40.7533 33.2533 39.5983 32.7517 38.735 32.145L40.415 28.82C41.255 29.38 42.2583 29.835 43.425 30.185C44.615 30.5117 45.7817 30.675 46.925 30.675C49.5383 30.675 50.845 29.9867 50.845 28.61C50.845 27.9567 50.5067 27.5017 49.83 27.245C49.1767 26.9883 48.115 26.7433 46.645 26.51C45.105 26.2767 43.845 26.0083 42.865 25.705C41.9083 25.4017 41.0683 24.8767 40.345 24.13C39.645 23.36 39.295 22.2983 39.295 20.945C39.295 19.1717 40.03 17.76 41.5 16.71C42.9933 15.6367 45 15.1 47.52 15.1C48.8033 15.1 50.0867 15.2517 51.37 15.555C52.6533 15.835 53.7033 16.22 54.52 16.71L52.84 20.035C51.2533 19.1017 49.4683 18.635 47.485 18.635C46.2017 18.635 45.2217 18.8333 44.545 19.23C43.8917 19.6033 43.565 20.105 43.565 20.735C43.565 21.435 43.915 21.9367 44.615 22.24C45.3383 22.52 46.4467 22.7883 47.94 23.045C49.4333 23.2783 50.6583 23.5467 51.615 23.85C52.5717 24.1533 53.3883 24.6667 54.065 25.39C54.765 26.1133 55.115 27.14 55.115 28.47C55.115 30.22 54.3567 31.62 52.84 32.67C51.3233 33.72 49.2583 34.245 46.645 34.245ZM77.1527 15.31V34H72.9877V31.585C72.2644 32.4717 71.366 33.1367 70.2927 33.58C69.2427 34.0233 68.076 34.245 66.7927 34.245C64.9727 34.245 63.3394 33.8483 61.8927 33.055C60.4694 32.2617 59.3494 31.1417 58.5327 29.695C57.7394 28.2483 57.3427 26.5683 57.3427 24.655C57.3427 22.7417 57.7394 21.0733 58.5327 19.65C59.3494 18.2033 60.4694 17.0833 61.8927 16.29C63.3394 15.4967 64.9727 15.1 66.7927 15.1C68.006 15.1 69.1144 15.31 70.1177 15.73C71.1444 16.15 72.031 16.7683 72.7777 17.585V15.31H77.1527ZM67.2827 30.5C68.8927 30.5 70.2227 29.9633 71.2727 28.89C72.3227 27.8167 72.8477 26.405 72.8477 24.655C72.8477 22.905 72.3227 21.4933 71.2727 20.42C70.2227 19.3467 68.8927 18.81 67.2827 18.81C65.6727 18.81 64.3427 19.3467 63.2927 20.42C62.266 21.4933 61.7527 22.905 61.7527 24.655C61.7527 26.405 62.266 27.8167 63.2927 28.89C64.3427 29.9633 65.6727 30.5 67.2827 30.5ZM89.9118 11.32C88.0685 11.32 87.1468 12.3233 87.1468 14.33V15.45H92.2918V18.95H87.2518V34H82.8768V14.26C82.8768 12.2767 83.4602 10.7017 84.6268 9.535C85.7935 8.36833 87.4502 7.785 89.5968 7.785C91.2535 7.785 92.5602 8.12333 93.5168 8.8L92.2918 12.09C91.5918 11.5767 90.7985 11.32 89.9118 11.32ZM103.832 30.535C105.862 30.535 107.554 29.8583 108.907 28.505L111.217 31.2C110.401 32.2033 109.351 32.9617 108.067 33.475C106.784 33.9883 105.337 34.245 103.727 34.245C101.674 34.245 99.8656 33.8367 98.3023 33.02C96.7389 32.2033 95.5256 31.0717 94.6623 29.625C93.8223 28.155 93.4023 26.4983 93.4023 24.655C93.4023 22.835 93.8106 21.2017 94.6273 19.755C95.4673 18.285 96.6106 17.1417 98.0573 16.325C99.5273 15.5083 101.184 15.1 103.027 15.1C104.777 15.1 106.364 15.485 107.787 16.255C109.234 17.0017 110.377 18.0867 111.217 19.51C112.057 20.91 112.477 22.555 112.477 24.445L98.1623 27.245C98.6056 28.3183 99.3173 29.135 100.297 29.695C101.277 30.255 102.456 30.535 103.832 30.535ZM103.027 18.6C101.417 18.6 100.111 19.125 99.1073 20.175C98.1273 21.225 97.6373 22.6367 97.6373 24.41V24.445L108.207 22.415C107.904 21.2717 107.286 20.35 106.352 19.65C105.442 18.95 104.334 18.6 103.027 18.6ZM118.081 34.245C117.287 34.245 116.611 33.9767 116.051 33.44C115.491 32.88 115.211 32.18 115.211 31.34C115.211 30.4767 115.479 29.7767 116.016 29.24C116.576 28.7033 117.264 28.435 118.081 28.435C118.897 28.435 119.574 28.7033 120.111 29.24C120.671 29.7767 120.951 30.4767 120.951 31.34C120.951 32.18 120.671 32.88 120.111 33.44C119.551 33.9767 118.874 34.245 118.081 34.245ZM133.459 34.245C131.522 34.245 129.784 33.8367 128.244 33.02C126.704 32.2033 125.502 31.0717 124.639 29.625C123.775 28.155 123.344 26.4983 123.344 24.655C123.344 22.8117 123.775 21.1667 124.639 19.72C125.502 18.2733 126.692 17.1417 128.209 16.325C129.749 15.5083 131.499 15.1 133.459 15.1C135.302 15.1 136.912 15.4733 138.289 16.22C139.689 16.9667 140.739 18.04 141.439 19.44L138.079 21.4C137.542 20.5367 136.865 19.895 136.049 19.475C135.255 19.0317 134.38 18.81 133.424 18.81C131.79 18.81 130.437 19.3467 129.364 20.42C128.29 21.47 127.754 22.8817 127.754 24.655C127.754 26.4283 128.279 27.8517 129.329 28.925C130.402 29.975 131.767 30.5 133.424 30.5C134.38 30.5 135.255 30.29 136.049 29.87C136.865 29.4267 137.542 28.7733 138.079 27.91L141.439 29.87C140.715 31.27 139.654 32.355 138.254 33.125C136.877 33.8717 135.279 34.245 133.459 34.245ZM151.21 34.245C149.273 34.245 147.756 33.72 146.66 32.67C145.586 31.5967 145.05 30.0917 145.05 28.155V8.03H149.425V27.84C149.425 29.7067 150.3 30.64 152.05 30.64C152.633 30.64 153.158 30.5233 153.625 30.29L153.835 33.79C153.018 34.0933 152.143 34.245 151.21 34.245ZM156.808 15.31H161.183V34H156.808V15.31ZM159.013 12.23C158.219 12.23 157.554 11.985 157.018 11.495C156.481 10.9817 156.213 10.3517 156.213 9.605C156.213 8.85833 156.481 8.24 157.018 7.75C157.554 7.23667 158.219 6.98 159.013 6.98C159.806 6.98 160.471 7.225 161.008 7.715C161.544 8.18167 161.813 8.77667 161.813 9.5C161.813 10.27 161.544 10.9233 161.008 11.46C160.494 11.9733 159.829 12.23 159.013 12.23ZM177.53 15.1C179.886 15.1 181.776 15.7883 183.2 17.165C184.623 18.5417 185.335 20.5833 185.335 23.29V34H180.96V23.85C180.96 22.2167 180.575 20.9917 179.805 20.175C179.035 19.335 177.938 18.915 176.515 18.915C174.905 18.915 173.633 19.405 172.7 20.385C171.766 21.3417 171.3 22.73 171.3 24.55V34H166.925V15.31H171.09V17.725C171.813 16.8617 172.723 16.2083 173.82 15.765C174.916 15.3217 176.153 15.1 177.53 15.1ZM190.885 15.31H195.26V34H190.885V15.31ZM193.09 12.23C192.296 12.23 191.631 11.985 191.095 11.495C190.558 10.9817 190.29 10.3517 190.29 9.605C190.29 8.85833 190.558 8.24 191.095 7.75C191.631 7.23667 192.296 6.98 193.09 6.98C193.883 6.98 194.548 7.225 195.085 7.715C195.621 8.18167 195.89 8.77667 195.89 9.5C195.89 10.27 195.621 10.9233 195.085 11.46C194.571 11.9733 193.906 12.23 193.09 12.23ZM209.577 34.245C207.64 34.245 205.902 33.8367 204.362 33.02C202.822 32.2033 201.62 31.0717 200.757 29.625C199.894 28.155 199.462 26.4983 199.462 24.655C199.462 22.8117 199.894 21.1667 200.757 19.72C201.62 18.2733 202.81 17.1417 204.327 16.325C205.867 15.5083 207.617 15.1 209.577 15.1C211.42 15.1 213.03 15.4733 214.407 16.22C215.807 16.9667 216.857 18.04 217.557 19.44L214.197 21.4C213.66 20.5367 212.984 19.895 212.167 19.475C211.374 19.0317 210.499 18.81 209.542 18.81C207.909 18.81 206.555 19.3467 205.482 20.42C204.409 21.47 203.872 22.8817 203.872 24.655C203.872 26.4283 204.397 27.8517 205.447 28.925C206.52 29.975 207.885 30.5 209.542 30.5C210.499 30.5 211.374 30.29 212.167 29.87C212.984 29.4267 213.66 28.7733 214.197 27.91L217.557 29.87C216.834 31.27 215.772 32.355 214.372 33.125C212.995 33.8717 211.397 34.245 209.577 34.245Z" fill="white"/>
<path d="M13.9999 23.3334H10.6666V19.3334H13.9999V16H17.9999V19.3334H21.3333V23.3334H17.9999V26.6667H13.9999V23.3334ZM15.9999 8.66669L5.33325 12.6667V20.7867C5.33325 27.52 9.87992 33.8 15.9999 35.3334C22.1199 33.8 26.6666 27.52 26.6666 20.7867V12.6667L15.9999 8.66669Z" fill="#F8F8F8"/>
</svg>
