<svg width="70" height="70" viewBox="0 0 70 70" fill="none" xmlns="http://www.w3.org/2000/svg">
<path d="M70 35C70 54.33 54.33 70 35 70C15.67 70 0 54.33 0 35C0 15.67 15.67 0 35 0C54.33 0 70 15.67 70 35ZM2.97855 35C2.97855 52.685 17.315 67.0215 35 67.0215C52.685 67.0215 67.0215 52.685 67.0215 35C67.0215 17.315 52.685 2.97855 35 2.97855C17.315 2.97855 2.97855 17.315 2.97855 35Z" fill="#53A8BB"/>
<path d="M43.1066 28.3097C42.6551 27.6521 42.0378 27.1255 41.3174 26.7831C40.5969 26.4408 39.7988 26.2949 39.0038 26.3602C37.134 26.5725 36.6471 27.4354 34.9761 27.5999C33.3054 27.4354 32.8177 26.5725 30.9484 26.3602C30.1534 26.2949 29.3552 26.4408 28.6348 26.7831C27.9143 27.1255 27.2971 27.6521 26.8456 28.3097C25.773 29.9477 26.0083 32.3945 27.5502 34.2667C27.887 34.6624 28.0843 35.1579 28.1118 35.6768C28.204 38.0572 28.657 44.7542 30.8294 45.2077C32.5055 45.5577 31.6188 37.5477 34.9761 37.6515C38.333 37.5477 37.4471 45.5573 39.1228 45.2077C41.2951 44.7542 41.7478 38.0572 41.8404 35.6768C41.8678 35.1579 42.0651 34.6624 42.4019 34.2667C43.9439 32.3945 44.1791 29.9477 43.1066 28.3097Z" fill="white"/>
<path d="M43.1067 28.3096C42.6198 27.2223 38.2557 25.3202 39.0039 26.3601C40.1939 28.0137 40.64 31.1166 40.2705 34.4964C39.9524 37.4007 38.141 43.7819 38.141 43.7819C37.999 44.6499 38.5182 45.4184 38.8526 45.3651C39.7763 45.2185 41.9389 42.4045 41.8405 35.6767C41.8549 35.1551 42.0538 34.6555 42.4016 34.2666C43.0716 33.4425 43.4935 32.445 43.6183 31.3904C43.7432 30.3357 43.5657 29.2673 43.1067 28.3096Z" fill="#D0CFCE"/>
<path d="M43.1066 28.3097C42.6551 27.6521 42.0378 27.1255 41.3174 26.7831C40.5969 26.4408 39.7988 26.2949 39.0038 26.3602C37.134 26.5725 36.6471 27.4354 34.9761 27.5999C33.3054 27.4354 32.8177 26.5725 30.9484 26.3602C30.1534 26.2949 29.3552 26.4408 28.6348 26.7831C27.9143 27.1255 27.2971 27.6521 26.8456 28.3097C25.773 29.9477 26.0083 32.3945 27.5502 34.2667C27.887 34.6624 28.0843 35.1579 28.1118 35.6768C28.204 38.0572 28.657 44.7542 30.8294 45.2077C32.5055 45.5577 31.6188 37.5477 34.9761 37.6515C38.333 37.5477 37.4471 45.5573 39.1228 45.2077C41.2951 44.7542 41.7478 38.0572 41.8404 35.6768C41.8678 35.1579 42.0651 34.6624 42.4019 34.2667C43.9439 32.3945 44.1791 29.9477 43.1066 28.3097Z" stroke="#53A8BB" stroke-width="1.75" stroke-miterlimit="10"/>
</svg>
